<svg xmlns="http://www.w3.org/2000/svg" viewBox="618.333 842.45 22470 6971">
	<path d="M14190 7810 c-87 -11 -139 -40 -223 -125 -42 -42 -77 -81 -77 -86 0 -5 -22 -33 -48 -62 -27 -29 -64 -85 -82 -123 -18 -38 -38 -76 -45 -84 -26 -34 -109 -231 -130 -310 -13 -47 -40 -130 -60 -185 -20 -55 -41 -127 -46 -160 -4 -33 -20 -112 -35 -175 -29 -126 -38 -177 -53 -290 -15 -118 -49 -310 -66 -370 -8 -30 -15 -73 -15 -95 0 -22 -6 -71 -14 -110 -8 -38 -17 -101 -20 -140 -3 -38 -11 -119 -17 -180 -7 -60 -12 -135 -12 -165 0 -30 -2 -124 -5 -208 -5 -175 -13 -186 -65 -94 -30 53 -30 53 -12 92 20 44 17 115 -9 230 -8 36 -19 109 -25 164 -6 63 -15 104 -25 115 -9 10 -16 35 -16 56 0 30 -8 46 -40 81 -22 24 -40 50 -40 58 0 9 -13 30 -28 48 -16 18 -37 47 -47 65 -10 18 -49 57 -87 88 -37 31 -68 60 -68 65 0 5 -22 38 -49 73 -27 35 -54 82 -60 104 -14 51 -41 74 -121 104 -53 20 -81 24 -157 22 -84 -2 -99 -5 -155 -35 -42 -22 -72 -47 -93 -77 -18 -26 -43 -48 -60 -54 -17 -5 -43 -21 -58 -36 -35 -32 -90 -139 -110 -212 -8 -30 -30 -77 -48 -105 -19 -28 -38 -59 -44 -68 -9 -15 -16 -12 -64 24 -29 22 -59 40 -65 40 -17 0 -52 40 -61 68 -10 34 -99 100 -195 145 -46 21 -110 61 -142 89 -70 61 -123 78 -236 78 -85 0 -85 0 -124 -42 -24 -26 -54 -47 -76 -53 -31 -9 -42 -20 -69 -70 -17 -32 -36 -85 -43 -117 -7 -38 -23 -73 -44 -102 -47 -60 -56 -80 -56 -116 0 -17 -5 -41 -12 -53 -7 -12 -15 -47 -19 -77 -4 -30 -12 -84 -18 -118 -15 -82 -6 -392 13 -436 9 -22 12 -62 8 -131 -4 -106 7 -246 33 -385 18 -97 30 -362 30 -695 0 -230 0 -230 -49 -254 -57 -28 -188 -41 -224 -22 -17 9 -33 9 -64 0 -37 -10 -52 -8 -131 18 -73 23 -95 34 -115 61 -14 18 -38 40 -54 48 -70 36 -208 189 -208 230 0 8 -18 67 -41 131 -61 178 -69 211 -68 298 1 44 -7 121 -16 170 -9 50 -20 122 -24 160 -7 64 -48 169 -83 212 -16 20 0 79 33 127 18 25 31 56 31 77 2 54 -19 200 -36 247 -11 29 -13 61 -9 105 3 42 0 90 -13 147 -20 98 -21 110 -30 283 -6 125 -7 128 -36 152 -38 32 -70 32 -108 -2 -23 -22 -35 -48 -55 -122 -13 -52 -36 -118 -49 -145 -14 -28 -27 -71 -30 -96 -17 -152 -28 -229 -36 -255 -6 -19 -6 -94 0 -210 5 -99 15 -270 21 -379 6 -110 8 -213 5 -229 -3 -16 1 -67 9 -114 8 -47 15 -124 15 -172 0 -80 9 -175 30 -296 4 -27 4 -59 -1 -72 -14 -38 -119 -90 -154 -77 -18 7 -35 58 -35 103 0 38 -21 79 -64 126 -14 15 -26 33 -26 40 0 7 -13 29 -30 50 -16 21 -30 43 -30 48 0 6 -11 22 -24 36 -13 15 -36 64 -52 111 -16 46 -40 98 -54 114 -27 32 -27 35 -44 516 -2 52 -9 150 -16 218 -6 67 -13 151 -14 185 -3 44 -11 75 -30 108 -14 26 -33 71 -42 100 -18 63 -65 159 -99 208 -24 33 -165 190 -217 242 -15 14 -44 34 -65 44 -21 10 -59 37 -85 61 -37 35 -55 44 -83 44 -20 0 -52 7 -71 15 -37 15 -118 11 -141 -8 -15 -11 -73 -123 -73 -140 0 -7 -14 -32 -30 -57 -16 -25 -30 -54 -30 -65 0 -11 -14 -47 -30 -80 -16 -33 -30 -69 -30 -81 0 -11 -10 -50 -21 -85 -12 -35 -26 -80 -31 -99 -29 -108 -42 -565 -29 -1026 4 -132 3 -280 -2 -330 -5 -49 -8 -126 -7 -171 1 -45 -3 -97 -9 -115 -5 -18 -16 -57 -24 -87 -13 -53 -14 -55 -68 -74 -30 -10 -79 -30 -110 -43 -48 -21 -60 -22 -95 -12 -21 7 -55 22 -74 35 -19 13 -41 23 -48 23 -27 0 -232 192 -258 242 -8 15 -37 57 -64 94 -47 63 -50 70 -50 129 0 64 -16 133 -52 221 -17 43 -19 57 -10 83 8 24 8 40 -3 70 -9 25 -12 60 -8 93 4 38 0 65 -12 93 -15 37 -21 71 -44 255 -16 130 -33 248 -55 370 -12 70 -19 136 -15 150 4 14 7 45 8 69 1 25 6 70 12 100 11 51 10 61 -11 108 -23 54 -51 73 -111 73 -43 0 -112 -58 -124 -105 -6 -22 -25 -67 -42 -100 -17 -33 -38 -94 -48 -135 -19 -84 -26 -286 -14 -415 4 -44 10 -149 13 -234 3 -84 10 -170 15 -190 5 -20 10 -66 10 -103 0 -37 7 -125 15 -195 45 -362 61 -652 37 -676 -6 -6 -11 -28 -11 -49 0 -48 -20 -60 -80 -47 -57 13 -94 40 -115 86 -10 21 -37 70 -60 108 -23 39 -61 104 -84 147 -23 42 -48 82 -56 88 -11 9 -15 34 -15 84 0 39 -4 87 -10 106 -5 19 -14 72 -19 117 -6 45 -20 111 -31 147 -12 36 -25 90 -30 118 -4 29 -16 80 -25 113 -24 85 -34 129 -45 215 -17 135 -58 287 -94 351 -14 24 -26 54 -26 66 0 12 -4 24 -9 27 -5 3 -12 18 -15 32 -11 43 -50 86 -192 215 -151 136 -204 169 -270 169 -39 0 -49 5 -87 43 -93 95 -134 100 -229 28 -79 -60 -103 -98 -112 -171 -4 -38 -15 -68 -36 -98 -16 -23 -30 -48 -30 -54 0 -6 -14 -41 -32 -77 -17 -36 -35 -93 -40 -126 -22 -142 -26 -161 -36 -188 -7 -16 -12 -52 -12 -82 0 -30 -4 -65 -10 -80 -5 -14 -12 -90 -14 -168 -5 -131 -7 -142 -25 -145 -12 -2 -28 9 -46 32 -15 19 -48 45 -75 57 -27 12 -58 34 -69 50 -26 35 -88 53 -151 45 -42 -6 -46 -4 -62 24 -9 17 -34 37 -55 46 -102 42 -148 72 -157 100 -4 16 -19 54 -33 84 -29 64 -40 149 -25 203 9 31 7 48 -8 91 -10 30 -26 66 -35 80 -16 23 -159 150 -211 186 -12 8 -55 40 -95 71 -41 30 -88 61 -104 67 -17 7 -42 32 -59 57 -15 25 -37 50 -48 56 -11 6 -44 35 -72 65 -58 60 -81 71 -213 108 -133 38 -176 35 -243 -13 -62 -45 -162 -134 -257 -231 -63 -64 -83 -103 -83 -162 0 -15 -8 -33 -20 -41 -11 -7 -34 -45 -52 -83 -17 -38 -44 -85 -60 -105 -16 -19 -42 -71 -58 -115 -58 -153 -69 -157 -109 -39 -16 44 -40 106 -54 139 -15 32 -27 66 -27 75 0 9 -11 32 -24 51 -13 19 -26 46 -31 60 -16 54 -72 129 -154 203 -80 73 -108 92 -186 130 -16 7 -36 26 -44 40 -7 14 -27 31 -43 38 -15 6 -51 37 -80 68 -59 65 -98 91 -135 91 -15 0 -36 8 -47 19 -19 16 -69 44 -159 87 -37 18 -45 18 -92 -6 -22 -10 -65 -30 -96 -43 -66 -29 -117 -87 -144 -164 -11 -29 -35 -74 -55 -100 -58 -78 -80 -121 -114 -228 -34 -102 -51 -179 -67 -295 -5 -36 -15 -101 -21 -145 -20 -140 -7 -627 21 -806 6 -35 15 -122 21 -192 5 -71 16 -138 23 -150 6 -12 13 -49 13 -82 1 -33 7 -85 14 -115 6 -30 16 -80 22 -110 6 -30 15 -68 20 -85 9 -29 17 -72 37 -230 10 -81 36 -194 53 -230 13 -28 124 -125 143 -125 56 0 92 49 114 155 7 33 17 76 23 95 7 25 6 54 -4 104 -16 76 -4 164 27 212 12 18 14 36 10 68 -5 28 -1 64 10 102 14 53 15 65 2 120 -8 34 -24 71 -36 83 -11 11 -23 33 -26 48 -3 16 -13 50 -21 77 -7 26 -14 58 -14 70 0 11 -9 35 -20 51 -35 51 -57 108 -65 162 -4 29 -15 63 -25 76 -14 18 -21 49 -26 128 -6 89 -11 109 -32 137 -22 29 -24 38 -18 90 4 32 16 83 27 112 11 29 19 67 18 84 -2 17 1 72 5 121 8 90 8 90 72 148 61 56 67 59 117 59 65 0 164 -15 197 -30 14 -6 43 -25 65 -41 22 -17 51 -35 65 -41 57 -25 119 -73 150 -117 19 -26 62 -76 96 -112 34 -37 69 -82 79 -101 10 -19 30 -51 45 -70 15 -19 33 -57 40 -85 6 -27 25 -74 41 -102 28 -49 76 -169 135 -341 25 -71 25 -77 20 -295 -2 -122 -5 -229 -6 -237 -2 -22 8 -230 16 -342 6 -84 10 -100 30 -119 29 -27 53 -19 60 21 8 38 32 39 40 2 11 -47 57 -132 76 -138 23 -7 55 11 63 37 4 12 8 72 9 134 2 113 2 113 38 153 48 53 77 171 58 235 -13 43 -16 162 -5 196 3 12 2 36 -3 53 -6 18 -18 59 -28 90 -15 51 -16 69 -5 165 7 59 14 133 17 163 3 30 14 80 25 110 10 30 23 81 29 113 8 39 18 62 32 70 18 11 78 124 122 231 9 22 45 68 80 103 55 56 71 66 132 83 40 12 98 20 139 20 65 0 73 -3 119 -38 27 -20 56 -42 66 -47 9 -6 33 -26 53 -45 19 -19 61 -55 92 -80 31 -25 77 -66 102 -93 26 -26 70 -65 99 -88 62 -48 89 -95 74 -133 -5 -14 -29 -56 -54 -93 -27 -42 -48 -89 -55 -123 -7 -30 -20 -73 -31 -95 -29 -61 -56 -152 -70 -234 -7 -41 -21 -88 -31 -105 -10 -18 -26 -70 -35 -117 -9 -46 -20 -89 -26 -96 -18 -22 -37 -290 -23 -314 3 -3 -3 -28 -13 -56 -13 -37 -16 -68 -12 -127 5 -76 6 -78 47 -114 41 -36 73 -108 58 -132 -12 -19 15 -50 45 -50 38 0 57 21 65 72 4 24 19 65 32 92 15 29 26 69 27 95 1 43 4 47 38 63 21 10 44 30 52 45 8 16 33 46 55 68 23 21 41 42 41 45 0 4 20 42 45 85 46 82 77 168 68 190 -7 19 75 105 100 105 11 0 35 5 53 12 28 10 36 9 52 -6 11 -9 37 -19 58 -23 22 -3 50 -16 64 -28 14 -13 43 -29 65 -37 42 -14 238 -138 250 -157 3 -6 22 -18 41 -26 19 -8 34 -19 34 -26 0 -6 12 -26 28 -44 15 -18 38 -52 52 -76 14 -23 41 -58 60 -77 33 -34 61 -94 81 -177 6 -22 19 -67 29 -100 10 -33 21 -92 23 -132 6 -80 27 -128 81 -186 40 -42 64 -46 111 -17 67 42 106 125 74 157 -9 9 -8 22 5 53 9 22 16 54 16 71 0 17 5 40 12 52 7 12 15 51 18 87 8 79 38 234 54 275 13 32 8 75 -19 171 -8 28 -15 69 -15 92 0 23 -6 56 -14 74 -59 142 -81 225 -92 348 -3 30 -9 64 -14 75 -19 47 -33 146 -31 228 2 79 0 92 -22 125 -35 54 -39 104 -14 187 33 113 40 117 182 90 85 -16 105 -31 142 -100 9 -16 45 -63 82 -103 62 -69 76 -86 125 -156 19 -27 39 -116 50 -226 4 -36 11 -87 17 -115 5 -27 13 -79 19 -115 5 -36 18 -99 30 -140 26 -93 58 -235 70 -315 9 -61 26 -144 54 -269 8 -39 24 -82 35 -96 10 -15 22 -48 26 -74 4 -26 18 -62 31 -82 13 -19 26 -45 30 -58 3 -13 19 -36 35 -52 16 -15 29 -34 29 -41 0 -28 40 -92 78 -124 41 -36 72 -85 72 -116 0 -87 196 -138 301 -78 24 14 63 34 86 45 88 43 194 184 217 293 4 17 13 27 24 27 17 0 92 -79 124 -132 20 -32 99 -86 138 -94 14 -3 45 -14 70 -24 57 -22 227 -53 305 -54 47 -1 71 5 110 25 28 15 64 29 81 33 31 7 80 52 147 136 62 78 117 164 117 183 0 10 15 47 34 82 37 69 71 172 81 245 4 25 13 67 21 94 8 27 14 66 14 85 0 20 7 70 16 111 12 51 17 118 16 210 -1 76 4 150 10 170 26 79 33 155 24 244 -7 63 -6 102 3 135 7 28 11 109 10 202 0 84 3 186 9 225 10 70 7 119 -8 139 -5 6 -10 55 -11 110 -4 100 -4 100 24 97 15 -2 48 -14 74 -27 25 -14 52 -25 60 -25 30 0 243 -244 243 -278 0 -7 13 -38 29 -70 16 -31 32 -77 36 -101 4 -25 16 -69 26 -99 10 -30 21 -82 24 -115 3 -33 10 -67 15 -77 19 -36 32 -118 31 -201 -1 -47 3 -108 9 -134 8 -35 8 -63 -1 -104 -11 -56 -9 -93 22 -326 12 -95 41 -201 71 -261 13 -27 28 -62 32 -79 4 -16 30 -67 57 -113 28 -45 59 -103 69 -127 12 -29 32 -52 57 -68 21 -13 65 -54 98 -89 55 -60 65 -67 120 -78 111 -23 198 4 303 94 78 67 87 63 146 -50 33 -63 47 -80 71 -86 16 -4 44 -22 61 -40 78 -81 282 -218 324 -218 11 0 36 -9 57 -20 59 -30 259 -36 398 -11 97 18 109 23 153 61 47 42 132 147 132 164 0 5 11 24 24 41 14 18 28 45 32 61 3 16 17 51 30 78 13 28 24 57 24 65 0 9 9 31 20 49 12 20 20 50 20 78 0 43 7 72 52 213 15 49 19 78 14 119 -4 37 -2 59 6 69 7 8 15 43 19 77 4 33 12 86 17 116 11 65 6 435 -8 577 -5 54 -17 123 -26 153 -10 33 -14 72 -11 99 3 29 -2 67 -14 107 -15 50 -17 68 -8 91 10 26 8 104 -7 240 -6 53 -6 53 42 31 27 -11 67 -35 89 -52 70 -56 123 -88 157 -96 18 -4 41 -11 50 -15 16 -7 28 2 62 50 14 20 15 20 50 1 19 -10 75 -60 124 -110 71 -74 100 -114 146 -201 33 -61 68 -120 80 -133 11 -13 26 -47 32 -75 7 -29 19 -70 28 -92 8 -22 16 -62 16 -90 0 -27 5 -70 10 -95 10 -53 -6 -530 -20 -574 -6 -17 -5 -70 1 -135 6 -58 13 -129 15 -158 4 -37 16 -69 45 -115 49 -77 104 -193 119 -248 17 -63 57 -101 111 -107 38 -4 50 -1 74 20 27 23 30 31 33 103 3 45 10 88 18 99 8 11 14 30 14 43 0 13 10 37 21 54 15 20 23 51 27 96 4 53 12 77 40 121 19 30 41 75 49 100 18 60 16 169 -3 222 -11 29 -16 72 -15 126 2 74 -1 87 -24 120 -14 21 -25 51 -25 68 0 41 -35 232 -50 270 -18 47 -47 185 -69 325 -7 41 -18 91 -26 111 -8 20 -19 108 -25 195 -6 88 -14 175 -18 194 -4 19 -7 73 -6 120 1 80 3 89 39 149 39 63 39 63 142 59 102 -3 103 -4 136 -38 19 -19 63 -63 98 -97 107 -104 171 -188 200 -260 15 -38 39 -90 53 -117 14 -27 26 -64 26 -81 0 -50 38 -187 61 -218 12 -16 26 -63 35 -115 9 -48 25 -102 36 -121 15 -24 22 -54 24 -108 2 -41 7 -80 11 -86 4 -7 8 -66 8 -133 2 -145 12 -175 70 -209 51 -30 99 -32 143 -5 38 23 68 26 75 6 3 -7 1 -60 -3 -117 -5 -57 -11 -344 -14 -637 -5 -451 -3 -544 10 -610 8 -42 19 -117 25 -167 5 -49 23 -138 39 -197 17 -59 30 -118 30 -130 0 -13 9 -47 20 -76 11 -29 20 -67 20 -85 0 -39 41 -150 64 -173 9 -8 16 -32 16 -53 0 -20 5 -42 11 -48 5 -5 16 -32 23 -59 20 -75 106 -190 188 -249 84 -61 126 -85 153 -85 25 0 36 -8 58 -42 11 -18 29 -29 54 -34 21 -3 59 -19 84 -35 25 -16 55 -29 67 -29 12 0 52 -11 89 -25 86 -33 163 -36 201 -8 15 11 39 42 54 69 15 27 38 69 51 94 14 25 35 65 48 90 12 25 35 59 52 76 28 31 29 35 23 104 -4 54 -1 80 10 101 8 16 18 29 23 29 17 0 53 108 62 190 22 186 29 237 39 275 13 53 13 119 -1 165 -9 30 -8 48 5 93 24 81 21 145 -9 201 -23 44 -24 49 -10 76 27 52 9 248 -34 365 -10 28 -28 97 -40 155 -12 58 -26 123 -31 145 -4 22 -20 72 -35 110 -15 39 -31 102 -35 140 -14 123 -41 217 -83 290 -23 39 -46 88 -52 110 -14 56 -59 125 -137 212 -38 41 -68 78 -68 82 0 5 -13 25 -30 46 -16 21 -35 55 -41 77 -5 21 -16 41 -24 44 -7 3 -18 18 -25 33 -6 15 -23 34 -38 43 -15 9 -56 43 -92 75 -84 75 -154 119 -206 131 -50 11 -124 60 -150 99 -21 33 -23 125 -3 204 11 41 10 54 -4 86 -19 46 -29 147 -32 358 -3 188 9 385 25 416 7 12 14 74 16 138 5 123 25 245 49 290 7 15 18 72 24 127 10 102 20 145 53 249 11 33 28 91 39 128 14 47 45 104 100 188 44 67 84 131 89 144 23 61 101 87 170 56 25 -11 57 -21 72 -21 37 0 144 -57 182 -96 84 -86 127 -146 155 -215 16 -41 43 -90 60 -111 17 -20 35 -56 41 -81 5 -25 18 -60 28 -79 20 -35 59 -289 47 -307 -10 -17 -52 -13 -93 8 -73 36 -142 49 -254 46 -93 -2 -112 -5 -150 -28 -24 -14 -60 -28 -81 -32 -82 -16 -188 -185 -268 -430 -11 -33 -25 -69 -32 -80 -24 -37 -45 -109 -52 -175 -7 -70 -17 -139 -35 -235 -14 -71 -8 -164 15 -260 9 -38 18 -97 21 -130 5 -79 9 -94 48 -179 19 -39 36 -79 40 -89 7 -22 38 -34 109 -42 38 -4 66 -14 85 -29 36 -31 158 -60 219 -53 26 3 89 10 138 15 50 4 100 14 112 20 31 17 52 50 46 72 -3 12 5 32 21 50 14 17 28 47 32 68 16 86 42 174 56 189 22 21 57 8 64 -25 3 -15 12 -39 20 -54 8 -14 14 -35 14 -46 0 -12 5 -24 11 -28 6 -3 19 -25 29 -48 10 -22 32 -58 49 -80 17 -21 31 -44 31 -50 0 -6 16 -31 35 -55 19 -24 35 -51 35 -60 0 -9 14 -50 31 -91 17 -41 35 -106 39 -143 7 -59 15 -78 58 -140 27 -40 53 -88 57 -106 4 -18 17 -57 30 -85 22 -49 43 -126 66 -241 6 -27 17 -73 25 -101 21 -77 18 -192 -6 -229 -14 -20 -20 -47 -20 -83 0 -29 -6 -63 -12 -75 -13 -21 -21 -143 -34 -480 -5 -148 -5 -148 31 -202 25 -39 42 -55 58 -55 78 0 197 158 181 240 -8 39 1 72 29 107 13 15 32 53 41 83 10 30 26 66 36 80 9 14 20 43 24 65 4 22 18 68 32 102 13 34 24 70 24 82 0 11 14 29 31 41 27 20 38 21 107 16 42 -4 102 -8 132 -9 43 -2 65 -9 100 -33 51 -35 118 -70 203 -108 31 -14 57 -29 57 -34 0 -5 24 -25 54 -45 53 -35 148 -67 200 -67 29 0 92 51 102 83 4 12 31 48 60 80 51 55 54 61 54 110 1 69 24 225 40 262 7 17 16 57 20 90 4 33 15 78 23 100 12 32 13 52 5 102 -9 50 -7 70 6 109 19 55 21 115 5 131 -6 6 -15 47 -19 90 -13 120 -63 263 -116 326 -13 16 -27 41 -30 55 -20 86 -48 159 -73 187 -16 19 -44 62 -62 96 -19 34 -46 70 -61 78 -15 9 -36 37 -49 65 -22 50 -22 50 2 95 19 36 30 47 52 49 42 5 104 -24 160 -74 27 -24 52 -44 56 -44 9 0 72 -92 94 -135 8 -16 17 -69 19 -117 5 -93 16 -118 53 -118 32 0 59 26 101 95 36 60 36 60 35 190 0 72 3 135 7 141 4 6 17 16 29 23 35 18 46 78 34 179 -6 48 -18 109 -26 135 -10 34 -11 55 -5 73 19 48 11 91 -31 169 -34 62 -52 84 -101 118 -42 30 -61 50 -65 71 -7 34 -49 62 -107 72 -23 3 -54 13 -70 21 -66 34 -208 -13 -280 -92 -23 -24 -72 -68 -111 -98 -65 -49 -71 -57 -86 -113 -19 -67 -49 -145 -73 -189 -9 -16 -16 -34 -16 -38 0 -4 -10 -21 -21 -37 -20 -27 -27 -51 -49 -190 -4 -30 -16 -104 -26 -165 -20 -128 -20 -186 2 -304 21 -114 39 -176 62 -209 19 -27 102 -214 102 -230 0 -5 9 -17 20 -27 21 -19 27 -45 10 -45 -6 0 -34 13 -64 28 -53 29 -53 29 -275 26 -222 -3 -222 -3 -231 22 -6 14 -10 44 -10 67 -1 102 -51 235 -115 307 -12 14 -40 50 -61 80 -32 47 -39 65 -44 125 -3 39 -11 79 -17 90 -5 11 -13 46 -17 78 -7 67 -55 175 -101 226 -34 39 -55 84 -60 128 -10 92 -47 219 -94 318 -60 125 -74 171 -84 266 -8 81 -7 113 8 195 22 119 23 145 5 249 -14 89 -16 146 -6 250 6 52 3 84 -9 125 -25 83 -46 191 -39 201 3 5 -8 40 -25 77 -16 37 -33 90 -36 117 -7 54 -45 140 -87 195 -14 19 -29 46 -33 59 -4 14 -21 46 -36 72 -16 25 -29 52 -29 60 0 8 -21 42 -46 76 -32 43 -54 64 -75 68 -17 4 -41 22 -57 43 -59 78 -139 133 -216 147 -20 4 -49 17 -64 30 -34 28 -63 34 -132 25z m205 -2551 c100 -39 107 -45 75 -69 -36 -28 -48 -25 -90 20 -27 30 -45 40 -67 40 -30 0 -59 21 -46 33 13 13 49 6 128 -24z m-775 -1579 c17 -22 50 -48 73 -58 23 -10 59 -39 80 -63 129 -147 155 -176 183 -204 17 -16 49 -55 72 -85 22 -30 59 -73 81 -95 23 -21 41 -46 41 -55 0 -8 13 -40 29 -70 16 -30 36 -77 44 -105 8 -27 30 -81 50 -120 19 -38 42 -101 50 -140 10 -43 23 -75 36 -85 22 -17 38 -67 51 -155 5 -33 16 -98 24 -145 18 -100 38 -284 39 -355 1 -127 -6 -261 -15 -272 -17 -21 -67 -15 -132 16 -34 16 -89 40 -123 52 -35 12 -63 25 -63 30 0 5 -25 25 -56 45 -55 35 -92 71 -137 133 -12 16 -47 61 -78 98 -31 38 -67 89 -79 113 -12 24 -31 56 -41 70 -10 14 -25 56 -34 94 -8 38 -19 74 -24 80 -21 26 -81 202 -81 240 -1 22 -8 59 -16 81 -41 109 -42 114 -49 515 -3 140 -6 264 -7 275 -1 18 19 162 28 193 6 21 21 13 54 -28z
M22096 6383 c-21 -3 -48 -10 -60 -18 -12 -7 -37 -16 -57 -19 -39 -7 -67 -32 -93 -83 -9 -17 -24 -34 -34 -37 -10 -4 -28 -24 -41 -46 -12 -22 -35 -52 -51 -68 -49 -49 -90 -123 -90 -162 0 -25 -11 -51 -37 -89 -54 -76 -63 -93 -63 -118 0 -12 -4 -25 -10 -28 -5 -3 -10 -26 -10 -50 0 -24 -8 -66 -19 -92 -13 -33 -20 -87 -24 -175 -3 -70 -10 -135 -16 -146 -17 -31 -41 -184 -55 -342 -4 -53 -26 -124 -35 -114 -5 5 -14 36 -21 69 -6 33 -16 78 -21 100 -4 22 -8 58 -9 81 0 26 -11 61 -31 98 -17 32 -38 83 -46 114 -8 31 -25 75 -37 97 -13 22 -29 63 -35 90 -21 85 -76 187 -130 240 -33 32 -52 60 -56 83 -3 19 -15 51 -26 71 -10 20 -19 41 -19 48 0 20 -137 153 -174 168 -20 8 -51 15 -70 15 -18 0 -48 6 -66 14 -19 8 -51 11 -77 8 -24 -3 -61 0 -81 6 -20 6 -111 15 -201 21 -109 8 -175 17 -198 27 -20 10 -45 14 -65 10 -18 -3 -53 -7 -78 -9 -59 -4 -117 -42 -166 -108 -68 -92 -94 -130 -94 -137 0 -8 -48 -82 -78 -122 -10 -14 -41 -67 -68 -117 -27 -51 -54 -93 -61 -93 -13 0 -48 42 -83 100 -14 23 -39 57 -57 75 -17 18 -38 48 -46 67 -17 40 -69 82 -121 97 -21 5 -55 21 -75 34 -20 13 -60 39 -88 57 -29 17 -53 35 -53 39 0 4 -19 18 -42 31 -24 12 -56 35 -73 50 -16 16 -59 43 -95 61 -36 18 -74 40 -85 49 -39 32 -114 70 -138 70 -14 0 -52 -13 -85 -30 -65 -32 -83 -35 -111 -20 -10 5 -61 11 -113 12 -92 3 -95 2 -147 -31 -36 -24 -57 -45 -67 -71 -8 -21 -26 -42 -38 -48 -71 -32 -119 -99 -163 -227 -13 -38 -35 -88 -50 -110 -47 -70 -114 -207 -144 -294 -16 -47 -38 -94 -48 -105 -11 -12 -24 -39 -30 -61 -5 -22 -21 -71 -36 -110 -14 -38 -32 -106 -40 -150 -17 -101 -33 -172 -47 -210 -12 -35 -20 -71 -47 -212 -11 -56 -22 -107 -26 -113 -34 -55 -31 -678 3 -771 5 -13 12 -53 16 -88 4 -36 16 -82 27 -104 12 -22 32 -74 45 -116 36 -110 66 -183 85 -206 9 -11 33 -55 53 -98 51 -108 181 -237 297 -297 112 -57 174 -72 301 -72 93 0 116 4 178 29 40 15 81 37 91 48 74 82 109 138 109 172 0 23 32 108 58 154 38 68 90 260 101 374 5 61 17 175 26 255 9 79 13 154 10 165 -18 59 -26 96 -31 155 -3 36 -11 85 -19 110 -7 25 -16 65 -19 89 -4 24 -16 55 -27 70 -11 14 -30 42 -42 61 -13 19 -35 41 -50 48 -14 7 -45 35 -68 62 -23 27 -50 52 -60 55 -13 4 -19 16 -19 34 0 19 -13 39 -42 67 -24 23 -51 52 -61 67 -18 28 -105 61 -132 50 -9 -3 -15 -18 -15 -36 0 -24 11 -41 48 -75 26 -25 63 -55 82 -67 62 -40 99 -101 100 -163 0 -44 -28 -34 -122 41 -107 85 -155 112 -218 122 -25 3 -71 22 -103 42 -38 23 -66 33 -79 30 -12 -3 -34 1 -49 9 -15 7 -39 14 -54 14 -24 0 -25 3 -25 53 0 35 10 75 30 122 17 38 30 75 30 81 0 6 7 18 16 25 9 7 43 68 75 135 33 66 67 128 77 137 23 21 132 49 212 54 36 2 108 -3 160 -12 52 -9 118 -19 145 -23 48 -7 77 -23 155 -83 42 -33 154 -72 187 -66 18 3 27 -2 38 -23 7 -14 21 -33 30 -40 9 -8 28 -36 42 -64 17 -33 76 -101 171 -196 159 -159 187 -202 176 -268 -6 -38 -3 -43 50 -101 47 -51 56 -67 56 -98 0 -104 52 -281 130 -443 59 -124 71 -141 150 -220 43 -43 86 -92 95 -107 8 -15 40 -50 70 -78 30 -27 82 -76 114 -107 33 -31 77 -69 98 -83 21 -14 65 -45 98 -70 33 -24 76 -52 95 -61 19 -9 60 -29 91 -45 60 -31 135 -39 181 -19 13 5 49 14 81 20 43 9 69 21 97 46 25 23 47 34 68 34 16 0 50 11 73 25 24 14 50 25 57 25 8 0 26 9 41 19 15 11 39 23 53 26 14 4 43 24 64 46 38 39 39 39 99 33 33 -4 64 -10 69 -15 16 -15 9 -144 -10 -180 -11 -22 -17 -54 -16 -89 1 -30 -5 -79 -13 -110 -7 -30 -19 -122 -25 -205 -7 -82 -17 -163 -22 -180 -6 -16 -14 -95 -18 -175 -5 -80 -13 -190 -18 -245 -14 -141 -9 -492 8 -595 7 -47 13 -110 12 -140 -2 -76 24 -222 51 -278 17 -36 34 -53 72 -74 28 -15 61 -28 73 -28 39 0 92 -31 115 -66 29 -43 66 -64 117 -64 53 0 96 -22 116 -61 18 -35 78 -66 147 -75 53 -8 141 16 183 48 23 19 45 24 121 28 85 5 95 8 130 38 21 17 61 49 90 69 80 58 159 212 182 352 5 33 16 70 24 83 9 13 22 47 31 77 9 30 25 70 37 90 17 28 20 46 16 84 -4 26 -2 59 3 73 5 13 12 68 14 122 3 54 12 117 21 142 10 29 17 86 20 162 2 64 9 134 15 154 14 40 8 193 -10 299 -6 33 -15 116 -20 185 -5 69 -15 136 -21 150 -6 14 -15 45 -19 70 -17 94 -41 157 -80 212 -22 31 -40 60 -40 63 0 4 -15 30 -34 58 -52 80 -96 163 -96 179 0 8 -13 33 -29 55 -16 22 -36 53 -44 69 -8 16 -41 56 -74 89 -32 33 -74 81 -92 108 -19 26 -56 61 -81 77 -26 17 -52 42 -58 56 -7 15 -30 33 -56 44 -24 11 -49 26 -56 35 -6 8 -49 39 -94 69 -102 68 -107 74 -121 143 -11 54 -8 82 26 288 23 137 32 225 34 310 1 67 8 107 26 155 20 55 23 82 22 178 -1 112 -1 112 60 174 77 76 105 88 209 88 96 0 250 -44 316 -89 15 -10 49 -33 77 -50 52 -33 106 -93 160 -176 18 -27 42 -59 54 -70 26 -23 66 -105 75 -154 3 -19 14 -43 23 -54 12 -12 20 -44 24 -93 4 -51 11 -80 24 -94 21 -23 57 -26 74 -7 6 8 29 19 51 26 36 11 41 16 55 63 9 30 13 66 9 85 -5 25 -2 39 11 53 18 20 51 93 82 178 12 34 14 62 8 120 -3 43 -6 93 -5 112 5 145 5 143 -34 232 -21 47 -46 94 -57 104 -11 10 -19 30 -19 50 0 89 -151 314 -240 356 -25 11 -73 49 -106 84 -34 35 -79 72 -100 82 -22 9 -50 25 -64 34 -74 50 -246 83 -364 71z m-1795 -1109 c63 -14 139 -30 169 -35 30 -6 66 -17 80 -24 79 -42 222 -200 293 -324 21 -36 51 -79 66 -96 30 -32 66 -123 105 -265 12 -47 30 -99 39 -117 10 -18 17 -47 17 -65 0 -18 11 -57 25 -86 14 -30 25 -60 25 -67 0 -14 -82 -85 -99 -85 -6 0 -25 -6 -43 -14 -258 -110 -468 -82 -683 90 -22 17 -58 41 -80 52 -47 24 -158 135 -205 206 -18 27 -54 62 -82 79 -32 20 -57 45 -70 72 -25 49 -54 82 -89 101 -19 9 -29 25 -34 51 -4 21 -11 43 -15 48 -5 6 -14 31 -20 55 -26 102 -26 103 34 202 59 98 74 125 97 173 15 30 28 35 174 64 79 16 180 11 296 -15z m-2331 -1025 c47 -17 90 -35 96 -40 6 -5 44 -25 83 -44 39 -19 71 -38 71 -42 0 -5 20 -32 44 -62 24 -29 47 -67 50 -84 4 -17 17 -43 29 -57 14 -15 31 -55 41 -100 10 -41 23 -91 30 -110 22 -61 14 -71 -67 -85 -68 -11 -287 90 -352 162 -22 25 -71 67 -108 95 -56 40 -74 60 -95 106 -14 31 -36 74 -50 96 -13 22 -26 60 -29 90 -4 42 -1 56 17 79 20 25 27 27 89 27 50 0 89 -8 151 -31z m3615 -975 c39 -14 90 -29 115 -35 35 -7 53 -18 81 -51 21 -24 48 -54 62 -67 14 -13 44 -42 68 -65 24 -23 53 -52 65 -66 12 -14 52 -53 90 -87 44 -40 80 -83 99 -120 16 -32 46 -78 66 -103 20 -25 46 -66 57 -93 24 -55 72 -228 72 -261 0 -13 10 -58 22 -102 19 -69 22 -104 22 -279 0 -188 -1 -202 -22 -240 -12 -22 -22 -50 -22 -63 0 -13 -13 -36 -28 -50 -16 -15 -36 -39 -46 -54 -12 -18 -30 -30 -54 -34 -21 -3 -55 -12 -78 -19 -50 -17 -147 -6 -219 23 -28 11 -66 26 -85 33 -19 7 -59 33 -88 57 -30 24 -68 49 -85 55 -18 6 -46 24 -63 41 -17 17 -45 41 -63 54 -18 14 -35 38 -41 61 -5 21 -20 46 -31 57 -12 10 -35 46 -50 79 -23 48 -29 74 -29 128 0 42 -8 91 -21 130 -17 50 -20 75 -14 132 3 39 7 104 8 145 1 41 5 80 9 86 4 5 12 75 17 155 6 79 15 164 20 189 24 115 34 172 45 255 11 85 28 135 44 135 4 0 39 -12 77 -26z
M11779 2521 c-32 -9 -66 -25 -78 -35 -24 -22 -55 -117 -71 -221 -12 -78 -35 -160 -60 -220 -35 -82 -34 -314 2 -408 18 -46 59 -60 152 -53 45 4 128 9 186 12 97 4 139 12 400 73 96 23 109 39 119 153 4 47 11 90 15 96 4 6 8 100 10 209 4 198 4 198 -25 258 -53 112 -86 131 -239 140 -242 13 -355 12 -411 -4z
M5207 2340 c-47 -45 -91 -73 -192 -124 -73 -37 -96 -54 -123 -93 -53 -76 -84 -159 -92 -248 -4 -44 -15 -100 -24 -125 -19 -49 -46 -179 -53 -252 -4 -33 1 -60 16 -93 12 -26 21 -62 21 -80 0 -27 7 -39 42 -64 57 -42 97 -41 145 3 21 18 58 43 83 55 176 86 189 95 225 151 19 30 35 65 35 78 0 14 9 39 20 57 14 22 19 47 18 87 -1 39 5 67 20 97 12 23 22 58 23 79 0 20 9 69 20 107 21 71 25 172 8 190 -5 5 -9 38 -9 73 0 77 -10 98 -57 117 -55 23 -89 19 -126 -15z" fill="#5688C7"/>
</svg>